<?xml version="1.0" encoding="utf-8"?>
<!-- Generator: Adobe Illustrator 22.0.1, SVG Export Plug-In . SVG Version: 6.00 Build 0)  -->
<svg version="1.1" id="Layer_1" xmlns="http://www.w3.org/2000/svg" xmlns:xlink="http://www.w3.org/1999/xlink" x="0px" y="0px"
	 viewBox="0 0 576 109.3" style="enable-background:new 0 0 576 109.3;" xml:space="preserve">
<style type="text/css">
	.st0{fill:#3DA4DC;}
	.st1{fill:#3D2F81;}
	.st2{fill:#2F2F7F;}
	.st3{fill:#E73082;}
	.st4{fill:#9D237A;}
	.st5{fill:#F39220;}
	.st6{fill:#99CA46;}
	.st7{fill:#99643E;}
	.st8{fill:#685B30;}
	.st9{fill:#34A3DC;}
	.st10{fill:#495144;}
	.st11{fill:#96D5D2;}
	.st12{fill:#33A2DC;}
	.st13{fill:#F79520;}
	.st14{fill:#EE3E8A;}
	.st15{fill:#3C3082;}
	.st16{fill:#E43425;}
	.st17{fill:#412C28;}
	.st18{fill:#009C57;}
	.st19{fill:#2AB9CB;}
	.st20{fill:#E64325;}
	.st21{fill:#6D412C;}
	.st22{fill:#FDEE10;}
	.st23{fill:#A1C63A;}
	.st24{fill:#FAC7C1;}
	.st25{fill:#687231;}
	.st26{fill:#E83282;}
	.st27{fill:#E32526;}
	.st28{fill:#6D332A;}
	.st29{fill:#40A4DC;}
	.st30{fill:#FCEE18;}
	.st31{fill:#5B9A44;}
	.st32{fill:#6B4496;}
	.st33{fill:#6D382B;}
	.st34{fill:#158F46;}
	.st35{fill:#A26438;}
	.st36{fill:#382B72;}
	.st37{fill:#422B73;}
	.st38{fill:#EF4323;}
	.st39{fill:#9B2584;}
	.st40{fill:#9E2E33;}
	.st41{fill:#8FB63E;}
	.st42{fill:#A84433;}
	.st43{fill:#58AA46;}
	.st44{fill:#5A3438;}
	.st45{fill:#9C2584;}
	.st46{fill:#FCEE36;}
	.st47{fill:#61C4DA;}
</style>
<g>
	<g>
		<path class="st0" d="M39.5,56.8c-0.7-0.8-1.7-1.2-2.7-1.2c-0.9,0-1.8,0.3-2.5,1c-1.2,1.1-2.5,2-4,2.6c-1.5,0.6-3.2,0.9-4.9,0.9
			c-1.8,0-3.5-0.4-5.1-1c-2.3-1-4.3-2.7-5.8-4.7c-0.7-1-1.3-2.2-1.6-3.4c-0.4-1.2-0.6-2.5-0.6-3.9l0,0c0-2.1-1.7-3.7-3.7-3.7
			s-3.7,1.7-3.7,3.7l0,0c0,2.8,0.6,5.5,1.6,8c1.6,3.7,4.2,6.8,7.4,9c1.6,1.1,3.4,2,5.4,2.6c1.9,0.6,4,0.9,6.1,0.9c0,0,0,0,0,0
			c0,0,0,0,0,0c2.7,0,5.3-0.5,7.7-1.5c2.4-1,4.5-2.3,6.4-4.1C40.9,60.7,40.9,58.3,39.5,56.8L39.5,56.8z"/>
		<path class="st1" d="M39.5,32.4c-1.8-1.8-4-3.2-6.4-4.2c-2.4-1-5-1.5-7.8-1.5c0,0,0,0,0,0c0,0,0,0,0,0c-2.8,0-5.5,0.6-8,1.6
			c-3.7,1.6-6.8,4.2-9,7.4c-1.1,1.6-2,3.4-2.6,5.4c-0.6,1.9-0.9,4-0.9,6.1l0,0c0,2.1,1.7,3.7,3.7,3.7s3.7-1.7,3.7-3.7l0,0
			c0-1.8,0.4-3.5,1-5.1c1-2.3,2.7-4.3,4.7-5.8c1-0.7,2.2-1.3,3.4-1.6c1.2-0.4,2.5-0.6,3.9-0.6c1.8,0,3.4,0.3,5,1
			c1.5,0.6,2.9,1.5,4.1,2.7c0.7,0.7,1.6,1,2.6,1c1,0,1.9-0.4,2.7-1.1C41.1,36.1,41,33.8,39.5,32.4L39.5,32.4z"/>
		<path class="st2" d="M8.6,43.4c-2.1,0-3.7,1.7-3.7,3.7c0,2.1,1.7,3.7,3.7,3.7s3.7-1.7,3.7-3.7C12.3,45.1,10.6,43.4,8.6,43.4"/>
		<path class="st3" d="M33.3,35c0-2.1,1.7-3.7,3.7-3.7c2.1,0,3.7,1.7,3.7,3.7S39,38.8,37,38.8S33.3,37.1,33.3,35L33.3,35z"/>
		<path class="st4" d="M33.1,59.4c0-2.1,1.7-3.7,3.7-3.7s3.7,1.7,3.7,3.7c0,2.1-1.7,3.7-3.7,3.7S33.1,61.4,33.1,59.4L33.1,59.4z"/>
		<path class="st5" d="M4.8,47.1c0-2.1,1.7-3.7,3.7-3.7s3.7,1.7,3.7,3.7s-1.7,3.7-3.7,3.7S4.8,49.2,4.8,47.1L4.8,47.1z"/>
	</g>
	<g>
		
			<rect x="39.2" y="43.4" transform="matrix(0.4529 -0.8916 0.8916 0.4529 -10.65 76.9399)" class="st6" width="36.2" height="7.4"/>
		
			<rect x="70.1" y="29" transform="matrix(0.8916 -0.4529 0.4529 0.8916 -13.3519 38.5242)" class="st7" width="7.4" height="36.2"/>
		<path class="st8" d="M65.6,27.3c-2.8,0-4.6,2.9-3.3,5.4l3.3,6.5l3.3-6.5C70.1,30.2,68.3,27.3,65.6,27.3"/>
		<path class="st9" d="M71.1,50h-6.3c-2.1,0-3.7,1.7-3.7,3.7s1.7,3.7,3.7,3.7h10L71.1,50 M80.4,52l0.1,0.1
			C80.4,52.1,80.4,52,80.4,52"/>
		<path class="st10" d="M77.1,50h-6c0,0,0,0,0,0l3.8,7.4c0,0,0,0,0,0H77c2.1,0,3.8-1.6,3.8-3.7C80.8,51.7,79.2,50,77.1,50"/>
		<circle class="st11" cx="64.8" cy="53.7" r="3.7"/>
		<circle class="st12" cx="49.2" cy="63.3" r="3.7"/>
		<path class="st13" d="M78.3,63.3c0-2.1,1.7-3.7,3.7-3.7c2.1,0,3.7,1.7,3.7,3.7c0,2.1-1.7,3.7-3.7,3.7C79.9,67,78.3,65.4,78.3,63.3
			L78.3,63.3z"/>
		<path class="st14" d="M61.9,30.9c0-2.1,1.7-3.7,3.7-3.7c2.1,0,3.7,1.7,3.7,3.7s-1.7,3.7-3.7,3.7C63.5,34.7,61.9,33,61.9,30.9
			L61.9,30.9z"/>
	</g>
	<g>
		<rect x="86.1" y="27.3" class="st15" width="27.1" height="7.4"/>
		<rect x="96" y="34.7" class="st16" width="7.4" height="28.6"/>
		<path class="st17" d="M99.7,27.3c-2.1,0-3.7,1.7-3.7,3.7v3.7h7.4V31C103.4,28.9,101.7,27.3,99.7,27.3"/>
		<path class="st18" d="M109.5,31c0-2.1,1.7-3.7,3.7-3.7c2.1,0,3.7,1.7,3.7,3.7s-1.7,3.7-3.7,3.7S109.5,33,109.5,31L109.5,31z"/>
		<path class="st0" d="M82.4,31c0-2.1,1.7-3.7,3.7-3.7s3.7,1.7,3.7,3.7s-1.7,3.7-3.7,3.7C84.1,34.7,82.4,33,82.4,31L82.4,31z"/>
		<circle class="st5" cx="99.7" cy="63.3" r="3.7"/>
	</g>
	<g>
		<path class="st0" d="M156.5,56.8c-0.7-0.8-1.7-1.2-2.7-1.2c-0.9,0-1.8,0.3-2.5,1c-1.2,1.1-2.5,2-4,2.6c-1.5,0.6-3.2,0.9-4.9,0.9
			c-1.8,0-3.5-0.4-5.1-1c-2.3-1-4.3-2.7-5.8-4.7c-0.7-1-1.3-2.2-1.6-3.4c-0.4-1.2-0.6-2.5-0.6-3.9l0,0c0-2.1-1.7-3.7-3.7-3.7
			c-2.1,0-3.7,1.7-3.7,3.7l0,0c0,2.8,0.6,5.5,1.6,8c1.6,3.7,4.2,6.8,7.4,9c1.6,1.1,3.4,2,5.4,2.6c1.9,0.6,4,0.9,6.1,0.9c0,0,0,0,0,0
			c0,0,0,0,0,0c2.7,0,5.3-0.5,7.7-1.5c2.4-1,4.5-2.3,6.4-4.1C157.9,60.7,157.9,58.3,156.5,56.8L156.5,56.8z"/>
		<path class="st1" d="M156.5,32.4c-1.8-1.8-4-3.2-6.4-4.2c-2.4-1-5-1.5-7.8-1.5c0,0,0,0,0,0c0,0,0,0,0,0c-2.8,0-5.5,0.6-8,1.6
			c-3.7,1.6-6.8,4.2-9,7.4c-1.1,1.6-2,3.4-2.6,5.4c-0.6,1.9-0.9,4-0.9,6.1l0,0c0,2.1,1.7,3.7,3.7,3.7s3.7-1.7,3.7-3.7l0,0
			c0-1.8,0.4-3.5,1-5.1c1-2.3,2.7-4.3,4.7-5.8c1-0.7,2.2-1.3,3.4-1.6c1.2-0.4,2.5-0.6,3.9-0.6c1.8,0,3.4,0.3,5,1
			c1.5,0.6,2.9,1.5,4.1,2.7c0.7,0.7,1.6,1,2.6,1c1,0,1.9-0.4,2.7-1.1C158.1,36.1,158,33.8,156.5,32.4L156.5,32.4z"/>
		<path class="st2" d="M125.6,43.4c-2.1,0-3.7,1.7-3.7,3.7c0,2.1,1.7,3.7,3.7,3.7s3.7-1.7,3.7-3.7C129.3,45.1,127.6,43.4,125.6,43.4
			"/>
		<path class="st3" d="M150.3,35c0-2.1,1.7-3.7,3.7-3.7c2.1,0,3.7,1.7,3.7,3.7s-1.7,3.7-3.7,3.7C151.9,38.8,150.3,37.1,150.3,35
			L150.3,35z"/>
		<circle class="st4" cx="153.8" cy="59.4" r="3.7"/>
		<path class="st5" d="M121.8,47.1c0-2.1,1.7-3.7,3.7-3.7c2.1,0,3.7,1.7,3.7,3.7s-1.7,3.7-3.7,3.7C123.5,50.8,121.8,49.2,121.8,47.1
			L121.8,47.1z"/>
	</g>
	<g>
		<rect x="162.8" y="31" class="st4" width="7.4" height="32.3"/>
		<rect x="188.9" y="31" class="st19" width="7.4" height="32.3"/>
		<polyline class="st20" points="176,43.4 188.9,43.4 188.9,50.9 176,50.9 		"/>
		<path class="st21" d="M192.6,43.4h-3.7v7.4h3.7c2.1,0,3.7-1.7,3.7-3.7l0,0C196.3,45.1,194.7,43.4,192.6,43.4"/>
		<circle class="st22" cx="166.6" cy="63.3" r="3.7"/>
		<path class="st23" d="M162.8,30.9c0-2.1,1.7-3.7,3.7-3.7s3.7,1.7,3.7,3.7s-1.7,3.7-3.7,3.7S162.8,33,162.8,30.9L162.8,30.9z"/>
		<circle class="st5" cx="192.6" cy="63.3" r="3.7"/>
		<path class="st24" d="M188.9,30.9c0-2.1,1.7-3.7,3.7-3.7s3.7,1.7,3.7,3.7s-1.7,3.7-3.7,3.7C190.6,34.7,188.9,33,188.9,30.9
			L188.9,30.9z"/>
		<path class="st18" d="M172.3,47.1c0-2.1,1.7-3.7,3.7-3.7c2.1,0,3.7,1.7,3.7,3.7s-1.7,3.7-3.7,3.7C174,50.9,172.3,49.2,172.3,47.1
			L172.3,47.1z"/>
	</g>
	<g>
		<path class="st5" d="M227.6,33.2l14.3,19.6c0-1.3-0.1-2.3,0.7-3.4l3-4.1l-12-16.5L227.6,33.2z"/>
		<path class="st19" d="M257.5,28.8l-12,16.5l3,4.1c0.3,0.3,0.5,0.7,0.6,1.2c0,0,0,0,0,0l0,0c0.1,0.4,0.2,0.7,0.2,1.1v1.2l14.3-19.6
			L257.5,28.8z"/>
		<path class="st25" d="M242.6,49.4l6,0l-3-4.1L242.6,49.4z M242,50.4c-0.1,0.4-0.2,0.9-0.2,1.3v0C241.8,51.2,241.9,50.8,242,50.4
			 M249.1,50.5C249.1,50.5,249.1,50.5,249.1,50.5C249.1,50.5,249.1,50.5,249.1,50.5 M249.1,50.5c0.1,0.3,0.2,0.7,0.2,1.1v0
			C249.3,51.3,249.2,50.9,249.1,50.5"/>
		<path class="st26" d="M249.3,51.4v11.5c0,2.3-1.7,4.1-3.7,4.1s-3.7-1.8-3.7-4.1V51.4"/>
		<path class="st27" d="M242.6,49.4c-0.2,0.3-0.4,0.6-0.5,1C242.2,50,242.3,49.7,242.6,49.4L242.6,49.4 M248.6,53.7L248.6,53.7
			c-0.2,0.2-0.3,0.4-0.4,0.5C248.3,54.1,248.5,53.9,248.6,53.7 M242.9,54.2c0.3,0.3,0.7,0.6,1,0.7c-0.2-0.1-0.4-0.2-0.6-0.4
			C243.2,54.5,243.1,54.4,242.9,54.2 M247.1,55c-0.5,0.2-1,0.3-1.6,0.3c0,0,0,0,0,0C246.1,55.3,246.6,55.2,247.1,55"/>
		<path class="st28" d="M241.8,51.6c0-2.1,1.7-3.7,3.7-3.7s3.7,1.7,3.7,3.7s-1.7,3.7-3.7,3.7C243.5,55.3,241.8,53.7,241.8,51.6
			L241.8,51.6z"/>
		<path class="st3" d="M226.8,31c0-2.1,1.7-3.7,3.7-3.7s3.7,1.7,3.7,3.7s-1.7,3.7-3.7,3.7S226.8,33,226.8,31L226.8,31z"/>
		<circle class="st23" cx="245.5" cy="63.3" r="3.7"/>
		<path class="st24" d="M256.8,31c0-2.1,1.7-3.7,3.7-3.7s3.7,1.7,3.7,3.7s-1.7,3.7-3.7,3.7C258.5,34.7,256.8,33,256.8,31L256.8,31z"
			/>
	</g>
	<g>
		<line class="st20" x1="290.9" y1="26.3" x2="290.9" y2="26.3"/>
		<path class="st20" d="M277.3,47.4c0-7.5,6.1-13.6,13.6-13.6l0-7.4c-11.6,0-21,9.4-21,21H277.3z"/>
		<line class="st29" x1="290.9" y1="68.4" x2="290.9" y2="68.4"/>
		<path class="st29" d="M269.8,47.4c0,11.6,9.4,21,21,21l0-7.4c-1.9,0-3.7-0.4-5.3-1.1c-4.9-2.1-8.3-6.9-8.3-12.5H269.8z"/>
		<path class="st30" d="M304.5,47.4"/>
		<path class="st30" d="M304.5,47.4c0,7.5-6.1,13.6-13.6,13.6l0,7.4c11.6,0,21-9.4,21-21L304.5,47.4z"/>
		<path class="st31" d="M290.9,61c-2.1,0-3.7,1.7-3.7,3.7c0,2.1,1.7,3.7,3.7,3.7l0,0c2.1,0,3.7-1.7,3.7-3.7S292.9,61,290.9,61
			L290.9,61"/>
		<path class="st32" d="M290.9,33.8c7.6,0,13.6,6.1,13.6,13.6h7.4c0-11.6-9.4-21-21-21l-0.2,0l-0.1,7.4L290.9,33.8z"/>
		<line class="st32" x1="290.9" y1="26.3" x2="290.9" y2="26.3"/>
		<path class="st4" d="M308.2,43.7c-2.1,0-3.7,1.7-3.7,3.7s1.7,3.7,3.7,3.7c2,0,3.7-1.6,3.7-3.7c0,0,0,0,0,0
			C311.9,45.3,310.3,43.7,308.2,43.7"/>
		<path class="st1" d="M269.8,47.4c0-2.1,1.7-3.7,3.7-3.7s3.7,1.7,3.7,3.7c0,2.1-1.7,3.7-3.7,3.7S269.8,49.4,269.8,47.4L269.8,47.4z
			"/>
		<path class="st23" d="M287.2,30c0-2.1,1.7-3.7,3.7-3.7s3.7,1.7,3.7,3.7s-1.7,3.7-3.7,3.7S287.2,32.1,287.2,30L287.2,30z"/>
	</g>
	<g>
		<rect x="344.9" y="30.7" class="st23" width="7.4" height="21.2"/>
		<rect x="317.8" y="30.7" class="st16" width="7.4" height="21.2"/>
		<path class="st29" d="M352.4,52.2l-7.4,0c0,4.5-4.8,8.3-9.9,8.3c0,0,0,0,0,0c0,0,0,0,0,0c-5.1,0-9.8-3.8-9.8-8.4h-7.4
			c0,8.8,8.2,15.8,17.2,15.8C344.1,67.9,352.4,61,352.4,52.2"/>
		<path class="st33" d="M321.6,48.5c-2.1,0-3.7,1.7-3.7,3.7l0,0c0,2.1,1.7,3.7,3.7,3.7s3.7-1.7,3.7-3.7l0,0
			C325.3,50.1,323.6,48.5,321.6,48.5"/>
		<path class="st34" d="M348.7,48.5c-2.1,0-3.7,1.7-3.7,3.7c0,0,0,0,0,0c0,2,1.7,3.7,3.7,3.7c2.1,0,3.7-1.7,3.7-3.7l0,0
			C352.4,50.1,350.7,48.5,348.7,48.5"/>
		<path class="st24" d="M317.8,30.7c0-2.1,1.7-3.7,3.7-3.7s3.7,1.7,3.7,3.7s-1.7,3.7-3.7,3.7S317.8,32.8,317.8,30.7L317.8,30.7z"/>
		<path class="st5" d="M344.9,30.7c0-2.1,1.7-3.7,3.7-3.7c2.1,0,3.7,1.7,3.7,3.7s-1.7,3.7-3.7,3.7C346.6,34.5,344.9,32.8,344.9,30.7
			L344.9,30.7z"/>
	</g>
	<g>
		<path class="st30" d="M381.7,63.3c0,2.1,1.7,3.7,3.7,3.7l0,0C383.4,67,381.7,65.4,381.7,63.3V31h7.4v28.6"/>
		<polyline class="st29" points="389.1,59.6 404.5,59.6 404.5,67 385.4,67 		"/>
		<path class="st31" d="M389.1,59.6h-3.7c-2.1,0-3.7,1.7-3.7,3.7s1.7,3.7,3.7,3.7l0,0c2.1,0,3.7-1.7,3.7-3.7V59.6"/>
		<path class="st35" d="M381.7,31c0-2.1,1.7-3.7,3.7-3.7s3.7,1.7,3.7,3.7s-1.7,3.7-3.7,3.7S381.7,33,381.7,31L381.7,31z"/>
		<path class="st3" d="M400.8,63.3c0-2.1,1.7-3.7,3.7-3.7c2.1,0,3.7,1.7,3.7,3.7s-1.7,3.7-3.7,3.7C402.5,67,400.8,65.4,400.8,63.3
			L400.8,63.3z"/>
	</g>
	<g>
		
			<rect x="406.2" y="43.4" transform="matrix(0.4529 -0.8916 0.8916 0.4529 190.1414 404.1454)" class="st6" width="36.2" height="7.4"/>
		
			<rect x="437.1" y="29" transform="matrix(0.8916 -0.4529 0.4529 0.8916 26.4421 204.7324)" class="st7" width="7.4" height="36.2"/>
		<path class="st8" d="M432.6,27.3c-2.8,0-4.6,2.9-3.3,5.4l3.3,6.5l3.3-6.5C437.1,30.2,435.3,27.3,432.6,27.3"/>
		<path class="st9" d="M438.1,50h-6.3c-2.1,0-3.7,1.7-3.7,3.7s1.7,3.7,3.7,3.7h10L438.1,50 M447.4,52l0.1,0.1
			C447.4,52.1,447.4,52,447.4,52"/>
		<path class="st10" d="M444.1,50h-6c0,0,0,0,0,0l3.8,7.4c0,0,0,0,0,0h2.2c2.1,0,3.8-1.6,3.8-3.7C447.8,51.7,446.2,50,444.1,50"/>
		<path class="st11" d="M428.1,53.7c0-2.1,1.7-3.7,3.7-3.7c2.1,0,3.7,1.7,3.7,3.7c0,2.1-1.7,3.7-3.7,3.7
			C429.7,57.4,428.1,55.8,428.1,53.7L428.1,53.7z"/>
		<circle class="st12" cx="416.2" cy="63.3" r="3.7"/>
		<path class="st13" d="M445.3,63.3c0-2.1,1.7-3.7,3.7-3.7c2.1,0,3.7,1.7,3.7,3.7c0,2.1-1.7,3.7-3.7,3.7
			C446.9,67,445.3,65.4,445.3,63.3L445.3,63.3z"/>
		<path class="st14" d="M428.9,30.9c0-2.1,1.7-3.7,3.7-3.7c2.1,0,3.7,1.7,3.7,3.7s-1.7,3.7-3.7,3.7C430.5,34.7,428.9,33,428.9,30.9
			L428.9,30.9z"/>
	</g>
	<g>
		<rect x="454.1" y="27.3" class="st15" width="27.1" height="7.4"/>
		<rect x="464" y="34.7" class="st16" width="7.4" height="28.6"/>
		<path class="st17" d="M467.7,27.3c-2.1,0-3.7,1.7-3.7,3.7v3.7h7.4V31C471.4,28.9,469.7,27.3,467.7,27.3"/>
		<path class="st18" d="M477.5,31c0-2.1,1.7-3.7,3.7-3.7s3.7,1.7,3.7,3.7s-1.7,3.7-3.7,3.7S477.5,33,477.5,31L477.5,31z"/>
		<path class="st0" d="M450.4,31c0-2.1,1.7-3.7,3.7-3.7s3.7,1.7,3.7,3.7s-1.7,3.7-3.7,3.7S450.4,33,450.4,31L450.4,31z"/>
		<circle class="st5" cx="467.7" cy="63.3" r="3.7"/>
	</g>
	<g>
		<polyline class="st1" points="489.9,31 489.9,63.3 497.3,59.6 497.3,31 		"/>
		<polygon class="st4" points="497.3,34.7 515.1,34.7 515.1,27.3 493.6,27.3 		"/>
		<path class="st36" d="M493.6,27.3c-2.1,0-3.7,1.7-3.7,3.7c0,2.1,1.7,3.7,3.7,3.7h3.7V31C497.3,28.9,495.7,27.3,493.6,27.3"/>
		<polygon class="st5" points="493.6,67 515.1,67 515.1,59.6 497.3,59.6 		"/>
		<path class="st36" d="M497.3,59.6h-3.7c-2.1,0-3.7,1.7-3.7,3.7s1.7,3.7,3.7,3.7l0,0c2.1,0,3.7-1.7,3.7-3.7V59.6"/>
		<polyline class="st26" points="512,50.9 497.3,50.9 497.3,43.4 512,43.4 		"/>
		<path class="st37" d="M497.3,43.4h-3.7c-2.1,0-3.7,1.7-3.7,3.7c0,2.1,1.7,3.7,3.7,3.7h3.7V43.4"/>
		<circle class="st3" cx="515.1" cy="63.3" r="3.7"/>
		<path class="st18" d="M489.9,30.9c0-2.1,1.7-3.7,3.7-3.7s3.7,1.7,3.7,3.7c0,2.1-1.7,3.7-3.7,3.7C491.5,34.7,489.9,33,489.9,30.9
			L489.9,30.9z"/>
		<circle class="st23" cx="493.6" cy="63.3" r="3.7"/>
		<path class="st22" d="M511.4,31c0-2.1,1.7-3.7,3.7-3.7s3.7,1.7,3.7,3.7s-1.7,3.7-3.7,3.7S511.4,33,511.4,31L511.4,31z"/>
		<path class="st35" d="M508.3,47.1c0-2.1,1.7-3.7,3.7-3.7s3.7,1.7,3.7,3.7s-1.7,3.7-3.7,3.7S508.3,49.2,508.3,47.1L508.3,47.1z"/>
	</g>
	<g>
		<rect x="525.8" y="31" class="st38" width="7.4" height="32.3"/>
		<path class="st39" d="M542.9,46.4c0.4-0.1,0.8-0.2,1.2-0.2"/>
		<path class="st39" d="M540.7,51.2C540.7,51.2,540.7,51.2,540.7,51.2C540.7,51.2,540.7,51.2,540.7,51.2
			C540.7,51.2,540.7,51.2,540.7,51.2C540.7,51.2,540.7,51.2,540.7,51.2c-0.2-0.5-0.3-1-0.2-1.5c0,0,0,0,0,0c0,0,0,0,0,0
			c0-0.5,0.2-1,0.4-1.4c0.2-0.5,0.5-0.9,0.9-1.2c0.3-0.3,0.7-0.5,1.1-0.6c0,0,0,0,0,0c0,0,0,0,0,0"/>
		<polygon class="st39" points="544.1,46.2 533.3,46.2 533.3,53.6 544.4,53.6 		"/>
		<path class="st40" d="M533.3,46.2h-3.7c-2.1,0-3.7,1.7-3.7,3.7s1.7,3.7,3.7,3.7h3.7V46.2"/>
		<path class="st41" d="M544.2,46.2C544.2,46.2,544.1,46.2,544.2,46.2L544.2,46.2L544.2,46.2C544.2,46.2,544.2,46.2,544.2,46.2"/>
		<path class="st41" d="M551.6,65.6l-9.3-12h1.8h0.9c0,0,0,0,0,0c1.8,0,3.5-0.4,5.1-1c0.2-0.1,0.4-0.2,0.5-0.2l6.7,8.7L551.6,65.6z"
			/>
		<path class="st11" d="M533.3,34.7h11.8c6.5,0,8,9.3,1.7,11.2c-0.5,0.2-1.1,0.3-1.7,0.3h-0.9c0,0,0.1,0,0.1,0
			c1.1,0.1,2.1,0.6,2.8,1.5l3.6,4.7c4.5-2.1,7.5-6.7,7.5-11.9c0-7.3-5.9-13.2-13.2-13.2c0,0,0,0,0,0h-15.6L533.3,34.7z"/>
		<polygon class="st42" points="529.6,34.7 533.3,34.7 533.3,31 		"/>
		<path class="st43" d="M544.2,46.2L544.2,46.2c0,0,0.1,0,0.1,0C544.3,46.2,544.3,46.2,544.2,46.2 M545.8,46.6
			c0.5,0.2,0.9,0.5,1.2,0.9C546.7,47.1,546.3,46.8,545.8,46.6 M547.1,47.6c0.5,0.6,0.8,1.4,0.8,2.2c0,2.1-1.7,3.7-3.7,3.7h0.9
			c0,0,0,0,0,0c1.8,0,3.5-0.4,5.1-1c0.2-0.1,0.4-0.2,0.5-0.2L547.1,47.6"/>
		<path class="st44" d="M540.5,49.9c0-2.1,1.7-3.7,3.7-3.7c2.1,0,3.7,1.7,3.7,3.7c0,2.1-1.7,3.7-3.7,3.7
			C542.2,53.6,540.5,51.9,540.5,49.9z"/>
		<path class="st14" d="M550.8,63.3c0-2.1,1.7-3.7,3.7-3.7s3.7,1.7,3.7,3.7c0,2.1-1.7,3.7-3.7,3.7S550.8,65.4,550.8,63.3L550.8,63.3
			z"/>
		<path class="st45" d="M525.8,63.3c0-2.1,1.7-3.7,3.7-3.7c2.1,0,3.7,1.7,3.7,3.7c0,2.1-1.7,3.7-3.7,3.7
			C527.5,67,525.8,65.4,525.8,63.3L525.8,63.3z"/>
		<path class="st46" d="M525.8,31c0-2.1,1.7-3.7,3.7-3.7c2.1,0,3.7,1.7,3.7,3.7c0,2.1-1.7,3.7-3.7,3.7C527.5,34.7,525.8,33,525.8,31
			L525.8,31z"/>
	</g>
	<g>
		<path class="st47" d="M567.6,54.7c-2.1,0-3.7-1.7-3.7-3.7V30.9c0-2.1,1.7-3.7,3.7-3.7c2.1,0,3.7,1.7,3.7,3.7V51
			C571.3,53.1,569.6,54.7,567.6,54.7L567.6,54.7z"/>
		<path class="st20" d="M567.6,67c-2.1,0-3.7-1.7-3.7-3.7v-0.7c0-2.1,1.7-3.7,3.7-3.7c2.1,0,3.7,1.7,3.7,3.7v0.7
			C571.3,65.4,569.6,67,567.6,67L567.6,67z"/>
		<path class="st1" d="M563.8,30.9c0-2.1,1.7-3.7,3.7-3.7c2.1,0,3.7,1.7,3.7,3.7c0,2.1-1.7,3.7-3.7,3.7
			C565.5,34.6,563.8,33,563.8,30.9L563.8,30.9z"/>
	</g>
</g>
</svg>
