<?xml version="1.0" encoding="utf-8"?>
<!-- Generator: Adobe Illustrator 22.0.1, SVG Export Plug-In . SVG Version: 6.00 Build 0)  -->
<svg version="1.1" id="Layer_1" xmlns="http://www.w3.org/2000/svg" xmlns:xlink="http://www.w3.org/1999/xlink" x="0px" y="0px"
	 viewBox="0 0 576 109.3" style="enable-background:new 0 0 576 109.3;" xml:space="preserve">
<style type="text/css">
	.st0{fill:#3DA4DC;}
	.st1{fill:#3D2F81;}
	.st2{fill:#2F2F7F;}
	.st3{fill:#E73082;}
	.st4{fill:#9D237A;}
	.st5{fill:#F39220;}
	.st6{fill:#A1C63A;}
	.st7{fill:#40A4DC;}
	.st8{fill:#158F46;}
	.st9{fill:#9F7D2D;}
	.st10{fill:#E43425;}
	.st11{fill:#A26438;}
	.st12{fill:#2AB9CB;}
	.st13{fill:#47553D;}
	.st14{fill:#A5D8D6;}
	.st15{fill:#5CB246;}
	.st16{fill:#009C57;}
	.st17{fill:#442A37;}
	.st18{fill:#791415;}
	.st19{fill:#687231;}
	.st20{fill:#E83282;}
	.st21{fill:#E32526;}
	.st22{fill:#6D332A;}
	.st23{fill:#FAC7C1;}
	.st24{fill:#9E3927;}
	.st25{fill:#28B9CB;}
	.st26{fill:#FCEE18;}
	.st27{fill:#5B9A44;}
	.st28{fill:#FDEE10;}
	.st29{fill:#6E3283;}
	.st30{fill:#61C4DA;}
	.st31{fill:#E64325;}
</style>
<g>
	<g>
		<path class="st0" d="M73.6,62.6c-0.7-0.7-1.6-1.1-2.5-1.1c-0.8,0-1.7,0.3-2.3,0.9c-1.1,1-2.3,1.8-3.7,2.4
			c-1.4,0.6-2.9,0.9-4.4,0.9c-1.6,0-3.2-0.3-4.6-0.9c-2.1-0.9-3.9-2.4-5.2-4.3c-0.6-0.9-1.1-2-1.5-3.1c-0.3-1.1-0.5-2.3-0.5-3.5l0,0
			c0-1.9-1.5-3.4-3.4-3.4c-1.9,0-3.4,1.5-3.4,3.4l0,0c0,2.6,0.5,5,1.5,7.3c1.4,3.3,3.8,6.2,6.7,8.2c1.5,1,3.1,1.8,4.9,2.3
			c1.8,0.5,3.6,0.8,5.5,0.8c0,0,0,0,0,0c0,0,0,0,0,0c2.5,0,4.8-0.5,7-1.3c2.2-0.9,4.1-2.1,5.8-3.7C74.8,66.1,74.9,63.9,73.6,62.6
			L73.6,62.6z"/>
		<path class="st1" d="M73.6,40.3c-1.7-1.6-3.6-2.9-5.8-3.8c-2.2-0.9-4.6-1.4-7.1-1.4c0,0,0,0,0,0c0,0,0,0,0,0c-2.6,0-5,0.5-7.3,1.5
			c-3.3,1.4-6.2,3.8-8.2,6.7c-1,1.5-1.8,3.1-2.3,4.9c-0.5,1.8-0.8,3.6-0.8,5.5l0,0c0,1.9,1.5,3.4,3.4,3.4s3.4-1.5,3.4-3.4l0,0
			c0-1.6,0.3-3.2,0.9-4.6c0.9-2.1,2.4-3.9,4.3-5.2c0.9-0.6,2-1.1,3.1-1.5c1.1-0.3,2.3-0.5,3.5-0.5c1.6,0,3.1,0.3,4.5,0.9
			c1.4,0.6,2.7,1.4,3.7,2.4c0.7,0.6,1.5,0.9,2.3,0.9c0.9,0,1.8-0.3,2.4-1C75,43.8,75,41.6,73.6,40.3L73.6,40.3z"/>
		<path class="st2" d="M45.5,50.4c-1.9,0-3.4,1.5-3.4,3.4c0,1.9,1.5,3.4,3.4,3.4s3.4-1.5,3.4-3.4S47.3,50.4,45.5,50.4"/>
		<path class="st3" d="M67.9,42.8c0-1.9,1.5-3.4,3.4-3.4c1.9,0,3.4,1.5,3.4,3.4c0,1.9-1.5,3.4-3.4,3.4S67.9,44.6,67.9,42.8
			L67.9,42.8z"/>
		<path class="st4" d="M67.8,64.9c0-1.9,1.5-3.4,3.4-3.4c1.9,0,3.4,1.5,3.4,3.4s-1.5,3.4-3.4,3.4S67.8,66.7,67.8,64.9L67.8,64.9z"/>
		<path class="st5" d="M42.1,53.8c0-1.9,1.5-3.4,3.4-3.4c1.9,0,3.4,1.5,3.4,3.4s-1.5,3.4-3.4,3.4C43.6,57.1,42.1,55.6,42.1,53.8
			L42.1,53.8z"/>
	</g>
	<g>
		<path class="st6" d="M102.1,47.3c-2.4-1.9-5.3-2.9-8.4-2.9l0,6.8c2.4,0,4.5,1.2,5.7,3.1c3.1,4.8-0.2,11.2-5.7,11.2l0,6.8
			c2.9,0,5.9-1,8.4-2.9c0.1-0.1,0.3-0.2,0.4-0.3V47.7C102.4,47.6,102.3,47.4,102.1,47.3L102.1,47.3z"/>
		<path class="st7" d="M108.8,48.1l-6.7-0.7c0,0,0,0,0,0c0,0,0,0,0,0l0,0c0,0,0,0,0,0c-0.1,0.2-0.1,0.5-0.1,0.7
			c0,22,0,20.8,0.1,21.3c0,0,0,0,0,0l0,0c0,0,0,0,0,0c0,0,0,0,0,0l6.6-0.8L108.8,48.1L108.8,48.1z"/>
		<path class="st8" d="M102.1,47.3c-0.1,0.2-0.1,0.5-0.1,0.7c0,22.1,0,20.7,0.1,21.3c3.5-2.8,5.3-6.9,5.3-11
			C107.4,54.2,105.7,50.1,102.1,47.3"/>
		<polyline class="st5" points="93.8,44.4 93.8,44.4 93.8,44.4 		"/>
		<path class="st5" d="M93.8,65.5L93.8,65.5c-3.8,0-6.9-3.2-6.9-7.2c0-4,3.1-7.2,6.9-7.2l0-6.8c-9.8,0-16.4,10.2-12.6,19.3
			c2.1,5.1,7,8.5,12.6,8.5L93.8,65.5z"/>
		<path class="st9" d="M93.8,44.4L93.8,44.4c-1.9,0-3.4,1.5-3.4,3.4c0,1.9,1.5,3.4,3.4,3.4l0,0c1.9,0,3.4-1.5,3.4-3.4
			C97.1,45.9,95.6,44.4,93.8,44.4 M93.8,65.5L93.8,65.5c-1.9,0-3.4,1.5-3.4,3.4c0,1.9,1.5,3.4,3.4,3.4l0,0c1.9,0,3.4-1.5,3.4-3.4
			C97.1,67.1,95.6,65.5,93.8,65.5"/>
		<path class="st10" d="M102,48.1c0-1.9,1.5-3.4,3.4-3.4s3.4,1.5,3.4,3.4s-1.5,3.4-3.4,3.4S102,49.9,102,48.1L102,48.1z"/>
		<path class="st3" d="M102,68.6c0-1.9,1.5-3.4,3.4-3.4s3.4,1.5,3.4,3.4c0,1.9-1.5,3.4-3.4,3.4S102,70.4,102,68.6L102,68.6z"/>
	</g>
	<g>
		<path class="st11" d="M126.3,37.4l0,24.8c0,2.6,1.7,3.1,4.4,2.7l1,6.7c-7.8,1.1-12.1-3.3-12.1-9.6V37.4"/>
		<path class="st12" d="M130.9,43.8h-4.7v6.8h4.7V43.8z M119.5,43.8h-2.1c-1.9,0-3.4,1.5-3.4,3.4c0,1.9,1.5,3.4,3.4,3.4h2.1
			L119.5,43.8"/>
		<polyline class="st13" points="126.3,43.8 119.5,43.8 119.5,50.6 126.3,50.6 126.3,43.8 		"/>
		<path class="st0" d="M119.5,37.4c0-1.9,1.5-3.4,3.4-3.4c1.9,0,3.4,1.5,3.4,3.4s-1.5,3.4-3.4,3.4S119.5,39.3,119.5,37.4L119.5,37.4
			z"/>
		<path class="st4" d="M127.6,47.2c0-1.9,1.5-3.4,3.4-3.4s3.4,1.5,3.4,3.4s-1.5,3.4-3.4,3.4C129.1,50.6,127.6,49.1,127.6,47.2
			L127.6,47.2z"/>
		<path class="st3" d="M127.7,68.3c0-1.9,1.5-3.4,3.4-3.4c1.9,0,3.4,1.5,3.4,3.4c0,1.9-1.5,3.4-3.4,3.4S127.7,70.2,127.7,68.3
			L127.7,68.3z"/>
	</g>
	<g>
		<path class="st14" d="M157.8,52.7c-4.9-4.4-13-1.1-13,5.4h-6.8c0-12.4,15-18.7,24.2-10.4L157.8,52.7z"/>
		<path class="st6" d="M157.7,63.6c-0.7,0.6-1.5,1.1-2.3,1.4c-0.9,0.3-1.8,0.5-2.8,0.5c-1.1,0-2.1-0.2-3-0.6
			c-1.4-0.6-2.6-1.5-3.4-2.7c-0.4-0.6-0.7-1.2-1-1.9c-0.2-0.7-0.3-1.4-0.3-2.2l0,0h-6.8c0,2,0.4,3.8,1.2,5.5c1.1,2.6,3,4.7,5.3,6.2
			c1.2,0.8,2.4,1.4,3.8,1.8c1.4,0.4,2.8,0.6,4.3,0.6c0,0,0,0,0,0c1.8,0,3.6-0.3,5.2-0.9c1.6-0.6,3.1-1.5,4.4-2.6L157.7,63.6z"/>
		<path class="st15" d="M141.5,54.7c-1.9,0-3.4,1.5-3.4,3.4l0,0c0,1.9,1.5,3.4,3.4,3.4c1.9,0,3.4-1.5,3.4-3.4l0,0
			C144.8,56.2,143.3,54.7,141.5,54.7"/>
		<path class="st0" d="M156.5,66.2c0-1.9,1.5-3.4,3.4-3.4c1.9,0,3.4,1.5,3.4,3.4s-1.5,3.4-3.4,3.4C158,69.5,156.5,68,156.5,66.2
			L156.5,66.2z"/>
		<path class="st3" d="M156.7,50.2c0-1.9,1.5-3.4,3.4-3.4s3.4,1.5,3.4,3.4s-1.5,3.4-3.4,3.4C158.2,53.6,156.7,52.1,156.7,50.2
			L156.7,50.2z"/>
	</g>
	<g>
		<polyline class="st16" points="169.1,37.8 169.1,68.4 175.8,68.4 175.8,37.8 		"/>
		<path class="st4" d="M187,56.4c0-5.9-8.4-7.3-10.7-2c-0.3,0.6-0.4,1.3-0.4,2l0,0V45.6c8.2-4.1,17.9,1.7,17.9,10.7L187,56.4z"/>
		<path class="st17" d="M175.8,45.6c-1.9,0.9-3.4,2.3-4.6,4c-0.7,1-1.2,2-1.6,3.2c-0.4,1.1-0.6,2.4-0.6,3.6c0,1.9,1.5,3.4,3.4,3.4
			s3.4-1.5,3.4-3.4V45.6"/>
		<path class="st10" d="M193.7,68.5V56.4c0,0,0,0,0,0c0,0,0,0,0,0h0H187v12.1"/>
		<path class="st18" d="M190.4,53c-1.9,0-3.4,1.5-3.4,3.4l0,0c0,1.9,1.5,3.4,3.4,3.4c1.9,0,3.4-1.5,3.4-3.4h0c0,0,0,0,0,0
			C193.7,54.5,192.2,53,190.4,53"/>
		<path class="st3" d="M169.1,37.8c0-1.9,1.5-3.4,3.4-3.4s3.4,1.5,3.4,3.4s-1.5,3.4-3.4,3.4S169.1,39.7,169.1,37.8L169.1,37.8z"/>
		<circle class="st0" cx="190.4" cy="68.5" r="3.4"/>
		<circle class="st6" cx="172.5" cy="68.5" r="3.4"/>
	</g>
	<g>
		<path class="st5" d="M220.7,41.1l13,17.9c0-1.2-0.1-2.1,0.7-3.1l2.7-3.7l-10.9-15L220.7,41.1z"/>
		<path class="st12" d="M248,37.1l-10.9,15l2.7,3.7c0.2,0.3,0.4,0.7,0.5,1c0,0,0,0,0,0l0,0c0.1,0.3,0.1,0.7,0.1,1v1.1l13-17.9
			L248,37.1z"/>
		<path class="st19" d="M234.4,55.8l5.4,0l-2.7-3.7L234.4,55.8z M233.9,56.7c-0.1,0.4-0.2,0.8-0.2,1.2v0
			C233.7,57.4,233.8,57,233.9,56.7 M240.3,56.9C240.3,56.9,240.3,56.9,240.3,56.9C240.3,56.9,240.3,56.9,240.3,56.9 M240.3,56.9
			c0.1,0.3,0.1,0.6,0.1,1v0C240.5,57.5,240.4,57.2,240.3,56.9"/>
		<path class="st20" d="M240.5,57.6v10.5c0,2-1.5,3.7-3.4,3.7c-1.9,0-3.4-1.7-3.4-3.7V57.6"/>
		<path class="st21" d="M234.4,55.8c-0.2,0.3-0.4,0.6-0.5,0.9C234,56.4,234.2,56.1,234.4,55.8L234.4,55.8 M239.9,59.7L239.9,59.7
			c-0.2,0.2-0.3,0.3-0.4,0.5C239.6,60.1,239.7,59.9,239.9,59.7 M234.7,60.2c0.3,0.3,0.6,0.5,1,0.7c-0.2-0.1-0.4-0.2-0.6-0.3
			C235,60.4,234.8,60.3,234.7,60.2 M238.5,60.9c-0.4,0.2-0.9,0.3-1.4,0.3c0,0,0,0,0,0C237.6,61.2,238.1,61.1,238.5,60.9"/>
		<path class="st22" d="M233.7,57.8c0-1.9,1.5-3.4,3.4-3.4s3.4,1.5,3.4,3.4c0,1.9-1.5,3.4-3.4,3.4S233.7,59.7,233.7,57.8L233.7,57.8
			z"/>
		<path class="st3" d="M220.1,39.1c0-1.9,1.5-3.4,3.4-3.4s3.4,1.5,3.4,3.4c0,1.9-1.5,3.4-3.4,3.4S220.1,40.9,220.1,39.1L220.1,39.1z
			"/>
		<path class="st6" d="M233.7,68.5c0-1.9,1.5-3.4,3.4-3.4s3.4,1.5,3.4,3.4c0,1.9-1.5,3.4-3.4,3.4S233.7,70.3,233.7,68.5L233.7,68.5z
			"/>
		<path class="st23" d="M247.3,39.1c0-1.9,1.5-3.4,3.4-3.4c1.9,0,3.4,1.5,3.4,3.4c0,1.9-1.5,3.4-3.4,3.4S247.3,40.9,247.3,39.1
			L247.3,39.1z"/>
	</g>
	<g>
		<path class="st5" d="M281,58.6c0-0.8-0.1-1.5-0.3-2.2c-0.2-0.7-0.5-1.3-0.9-1.9c-0.8-1.2-2-2.1-3.3-2.7c-0.9-0.4-1.9-0.6-3-0.6
			c-0.8,0-1.6,0.1-2.3,0.3c-0.7,0.2-1.4,0.5-2,0.9c-1.2,0.8-2.2,1.9-2.7,3.2c-0.4,0.9-0.6,1.8-0.6,2.8l0,0h-6.8
			c0-1.5,0.2-2.9,0.7-4.2c0.4-1.3,1-2.6,1.8-3.7c1.6-2.3,3.7-4,6.3-5.1c1.7-0.7,3.6-1.1,5.6-1.1c0,0,0,0,0,0c1.5,0,2.9,0.2,4.2,0.6
			c1.3,0.4,2.6,1,3.8,1.8c2.3,1.5,4.1,3.7,5.2,6.2c0.7,1.7,1.1,3.6,1.1,5.5L281,58.6z"/>
		<path class="st7" d="M287.8,58.6c0,1.9-1.5,3.4-3.4,3.4c-1.9,0-3.4-1.5-3.4-3.4l0,0c0,4.1-3.4,7.4-7.6,7.4c-4.2,0-7.6-3.3-7.6-7.4
			l0,0c0,1.9-1.5,3.4-3.4,3.4c-1.9,0-3.4-1.5-3.4-3.4c0,7.8,6.4,14.1,14.3,14.1c0,0,0,0,0,0C281.4,72.7,287.8,66.4,287.8,58.6"/>
		<path class="st4" d="M262.5,55.2c-1.9,0-3.4,1.5-3.4,3.4l0,0c0,1.9,1.5,3.4,3.4,3.4s3.4-1.5,3.4-3.4l0,0
			C265.8,56.7,264.3,55.2,262.5,55.2"/>
		<path class="st1" d="M284.4,55.2c-1.9,0-3.4,1.5-3.4,3.4l0,0c0,1.9,1.5,3.4,3.4,3.4s3.4-1.5,3.4-3.4l0,0
			C287.8,56.7,286.3,55.2,284.4,55.2"/>
	</g>
	<g>
		<path class="st6" d="M314.4,44.6c1.9,0,3.4,1.5,3.4,3.4v20.8c0,1.9-1.5,3.4-3.4,3.4c-1.9,0-3.4-1.5-3.4-3.4V48
			C311,46.1,312.5,44.6,314.4,44.6L314.4,44.6z"/>
		<path class="st5" d="M293.1,60c0,9.3,10.2,15,18.4,10.5c-0.3-0.5-0.5-1.1-0.5-1.7V60c0,6-9,7.4-10.9,1.6c-0.2-0.5-0.2-1-0.2-1.6
			C299,60,293.9,60,293.1,60z"/>
		<path class="st9" d="M311.5,70.5c1.6-0.9,3.1-2.2,4.1-3.7c0.7-1,1.2-2,1.6-3.2c0.4-1.1,0.6-2.4,0.6-3.6c0-1.9-1.5-3.4-3.4-3.4
			c-1.9,0-3.4,1.5-3.4,3.4v8.8C311,69.4,311.2,70,311.5,70.5"/>
		<rect x="293.1" y="47.7" class="st4" width="6.7" height="12.4"/>
		<path class="st24" d="M296.5,63.4c1.9,0,3.4-1.5,3.4-3.4l0,0c0-1.9-1.5-3.4-3.4-3.4c-1.9,0-3.4,1.5-3.4,3.4l0,0
			C293.1,61.9,294.6,63.4,296.5,63.4"/>
		<path class="st25" d="M293.1,47.9c0-1.9,1.5-3.4,3.4-3.4c1.9,0,3.4,1.5,3.4,3.4s-1.5,3.4-3.4,3.4
			C294.6,51.3,293.1,49.8,293.1,47.9L293.1,47.9z"/>
		<path class="st1" d="M311,47.9c0-1.9,1.5-3.4,3.4-3.4c1.9,0,3.4,1.5,3.4,3.4s-1.5,3.4-3.4,3.4C312.5,51.3,311,49.8,311,47.9
			L311,47.9z"/>
	</g>
	<g>
		<path class="st26" d="M344.9,68.5c0,1.9,1.5,3.4,3.4,3.4l0,0C346.4,71.8,344.9,70.3,344.9,68.5V39.1h6.8v26"/>
		<polyline class="st7" points="351.6,65.1 365.6,65.1 365.6,71.8 348.2,71.8 		"/>
		<path class="st27" d="M351.6,65.1h-3.4c-1.9,0-3.4,1.5-3.4,3.4s1.5,3.4,3.4,3.4l0,0c1.9,0,3.4-1.5,3.4-3.4V65.1"/>
		<path class="st11" d="M344.9,39.1c0-1.9,1.5-3.4,3.4-3.4c1.9,0,3.4,1.5,3.4,3.4s-1.5,3.4-3.4,3.4
			C346.4,42.5,344.9,40.9,344.9,39.1L344.9,39.1z"/>
		
			<ellipse transform="matrix(7.088949e-02 -0.9975 0.9975 7.088949e-02 271.4168 428.3044)" class="st3" cx="365.6" cy="68.5" rx="3.4" ry="3.4"/>
	</g>
	<g>
		<path class="st6" d="M396.1,47.3c-2.4-1.9-5.3-2.9-8.4-2.9l0,6.8c2.4,0,4.5,1.2,5.7,3.1c3.1,4.8-0.2,11.2-5.7,11.2l0,6.8
			c2.9,0,5.9-1,8.4-2.9c0.1-0.1,0.3-0.2,0.4-0.3V47.7C396.4,47.6,396.3,47.4,396.1,47.3L396.1,47.3z"/>
		<path class="st7" d="M402.8,48.1l-6.7-0.7c0,0,0,0,0,0c0,0,0,0,0,0l0,0c0,0,0,0,0,0c-0.1,0.2-0.1,0.5-0.1,0.7
			c0,22,0,20.8,0.1,21.3c0,0,0,0,0,0l0,0c0,0,0,0,0,0c0,0,0,0,0,0l6.6-0.8L402.8,48.1L402.8,48.1z"/>
		<path class="st8" d="M396.1,47.3c-0.1,0.2-0.1,0.5-0.1,0.7c0,22.1,0,20.7,0.1,21.3c3.5-2.8,5.3-6.9,5.3-11
			C401.4,54.2,399.7,50.1,396.1,47.3"/>
		<polyline class="st5" points="387.8,44.4 387.8,44.4 387.8,44.4 		"/>
		<path class="st5" d="M387.8,65.5L387.8,65.5c-3.8,0-6.9-3.2-6.9-7.2c0-4,3.1-7.2,6.9-7.2l0-6.8c-9.8,0-16.4,10.2-12.6,19.3
			c2.1,5.1,7,8.5,12.6,8.5L387.8,65.5z"/>
		<path class="st9" d="M387.8,44.4L387.8,44.4c-1.9,0-3.4,1.5-3.4,3.4c0,1.9,1.5,3.4,3.4,3.4l0,0c1.9,0,3.4-1.5,3.4-3.4
			C391.1,45.9,389.6,44.4,387.8,44.4 M387.8,65.5L387.8,65.5c-1.9,0-3.4,1.5-3.4,3.4c0,1.9,1.5,3.4,3.4,3.4l0,0
			c1.9,0,3.4-1.5,3.4-3.4C391.1,67.1,389.6,65.5,387.8,65.5"/>
		<circle class="st10" cx="399.4" cy="48.1" r="3.4"/>
		<circle class="st3" cx="399.4" cy="68.6" r="3.4"/>
	</g>
	<g>
		<path class="st11" d="M420.3,37.4l0,24.8c0,2.6,1.7,3.1,4.4,2.7l1,6.7c-7.8,1.1-12.1-3.3-12.1-9.6V37.4"/>
		<path class="st12" d="M424.9,43.8h-4.7v6.8h4.7V43.8z M413.5,43.8h-2.1c-1.9,0-3.4,1.5-3.4,3.4c0,1.9,1.5,3.4,3.4,3.4h2.1V43.8"/>
		<polyline class="st13" points="420.3,43.8 413.5,43.8 413.5,50.6 420.3,50.6 420.3,43.8 		"/>
		<path class="st0" d="M413.5,37.4c0-1.9,1.5-3.4,3.4-3.4c1.9,0,3.4,1.5,3.4,3.4s-1.5,3.4-3.4,3.4C415,40.8,413.5,39.3,413.5,37.4
			L413.5,37.4z"/>
		<path class="st4" d="M421.6,47.2c0-1.9,1.5-3.4,3.4-3.4c1.9,0,3.4,1.5,3.4,3.4s-1.5,3.4-3.4,3.4C423.1,50.6,421.6,49.1,421.6,47.2
			L421.6,47.2z"/>
		
			<ellipse transform="matrix(7.088949e-02 -0.9975 0.9975 7.088949e-02 326.8423 487.5202)" class="st3" cx="425.1" cy="68.3" rx="3.4" ry="3.4"/>
	</g>
	<g>
		<path class="st5" d="M438.8,58.4L438.8,58.4c0,1.3,0.2,2.4,0.6,3.3c0.4,1,1,1.7,1.7,2.4c0.5,0.4,1.1,0.8,1.7,1
			c0.9,0.4,2,0.6,3.4,0.6c0,0,0,0,0,0c0.8,0,1.8-0.2,2.7-0.5c0.9-0.3,1.7-0.9,2.4-1.5l4.5,5c-1.3,1.2-2.8,2.1-4.5,2.7
			c-1.6,0.6-3.4,1-5.1,1c0,0,0,0,0,0c-1.8,0-3.5-0.3-5.1-0.8c-1.6-0.5-3-1.3-4.2-2.3c-0.8-0.6-1.5-1.4-2.1-2.2
			c-0.8-1.1-1.5-2.3-1.9-3.5c-0.6-1.7-0.9-3.5-0.9-5.3L438.8,58.4z"/>
		<path class="st6" d="M445.6,44.3C445.6,44.3,445.6,44.3,445.6,44.3C445.6,44.3,445.6,44.3,445.6,44.3c-7.4,0-13.6,6.3-13.6,14.1
			l0,0h0h6.8c0-4.1,3.2-7.4,6.8-7.4c3,0,5.2,1.5,6.3,4l7.4,3.4C459.3,50.5,453.7,44.3,445.6,44.3"/>
		<path class="st9" d="M435.5,55c-1.9,0-3.4,1.5-3.4,3.4h0c0,1.9,1.5,3.4,3.4,3.4c1.9,0,3.4-1.5,3.4-3.4
			C438.8,56.5,437.3,55,435.5,55"/>
		<path class="st20" d="M451.9,55"/>
		<path class="st20" d="M451.9,55h-7.6c-1.9,0-3.4,1.5-3.4,3.4c0,1.9,1.5,3.4,3.4,3.4H456L451.9,55z"/>
		<path class="st24" d="M456,55h-4.1c0,0,0,0,0,0.1c0.4,1,0.7,2.1,0.7,3.3c0,1.9,1.5,3.4,3.4,3.4l0,0c1.9,0,3.4-1.5,3.4-3.4l0,0
			C459.3,56.5,457.8,55,456,55"/>
		
			<ellipse transform="matrix(0.9993 -3.837645e-02 3.837645e-02 0.9993 -2.2091 17.4589)" class="st0" cx="453.7" cy="66.3" rx="3.4" ry="3.4"/>
	</g>
	<g>
		<path class="st0" d="M482.9,45.9c-12.3-4.4-17.8,3.9-17.8,10.9c0,1.9,1.5,3.4,3.4,3.4c1.9,0,3.4-1.5,3.4-3.4l0,0
			c0-0.9,0.5-4.4,3.1-5.2c1.7-0.5,4,0,5.7,0.6L482.9,45.9z"/>
		<path class="st28" d="M478.4,49.1c0-1.9,1.5-3.4,3.4-3.4c1.9,0,3.4,1.5,3.4,3.4c0,1.9-1.5,3.4-3.4,3.4
			C479.9,52.5,478.4,50.9,478.4,49.1L478.4,49.1z"/>
		<path class="st3" d="M471.8,68.5V48.6V48c0-0.7-0.2-1.4-0.6-2c-0.6-0.8-1.6-1.4-2.7-1.4c-1.9,0-3.4,1.5-3.4,3.4v8.1v12.4
			L471.8,68.5"/>
		<path class="st29" d="M471.1,45.9c-4.1,2.2-6,6.8-6,10.9c0,1.9,1.5,3.4,3.4,3.4c1.9,0,3.4-1.5,3.4-3.4h0c0,0,0-8.8,0-8.8
			C471.8,47.3,471.6,46.5,471.1,45.9"/>
		
			<ellipse transform="matrix(7.088889e-02 -0.9975 0.9975 7.088889e-02 366.9002 530.9475)" class="st6" cx="468.5" cy="68.5" rx="3.4" ry="3.4"/>
	</g>
	<g>
		<path class="st30" d="M492.5,60.7c-1.9,0-3.4-1.5-3.4-3.4V39c0-1.9,1.5-3.4,3.4-3.4c1.9,0,3.4,1.5,3.4,3.4v18.3
			C495.8,59.2,494.3,60.7,492.5,60.7L492.5,60.7z"/>
		<path class="st31" d="M492.5,71.8c-1.9,0-3.4-1.5-3.4-3.4v-0.7c0-1.9,1.5-3.4,3.4-3.4c1.9,0,3.4,1.5,3.4,3.4v0.7
			C495.8,70.3,494.3,71.8,492.5,71.8z"/>
		<path class="st1" d="M489.1,39c0-1.9,1.5-3.4,3.4-3.4c1.9,0,3.4,1.5,3.4,3.4s-1.5,3.4-3.4,3.4C490.6,42.4,489.1,40.9,489.1,39
			L489.1,39z"/>
	</g>
</g>
</svg>
