<svg xmlns="http://www.w3.org/2000/svg" width="576" height="576" viewBox="0 0 576 576"><style>.st0{fill:#daaf28}.st1{font-family:&apos;FuturaPT-Medium&apos;}.st2{font-size:70px}.st3{fill:#ee2833}.st4{display:none}.st5{display:inline;fill:#58c6d4}</style><text id="red_triangle" class="st0 st1 st2" transform="translate(421.05 171.354)">2</text><g id="emsquared_font"><path d="M100.1 403.4H78.9v12.7h20.5v7.5H78.9v17.6h21.2v7.5H71v-52.8h29.1v7.5zm8.6 45.3l11.1-56.7 18.1 41 18.8-41 10 56.7h-8.2l-5.1-31.9-15.6 34.3-15.2-34.3-5.7 31.9h-8.2zm99-44.9l-6.5 3.8c-1.2-2.1-2.4-3.5-3.5-4.1-1.1-.7-2.6-1.1-4.4-1.1-2.2 0-4 .6-5.5 1.9-1.5 1.2-2.2 2.8-2.2 4.6 0 2.6 1.9 4.6 5.7 6.2l5.3 2.2c4.3 1.7 7.4 3.8 9.4 6.3s3 5.6 3 9.2c0 4.9-1.6 8.9-4.9 12-3.3 3.2-7.3 4.8-12.1 4.8-4.6 0-8.4-1.4-11.3-4.1-2.9-2.7-4.8-6.5-5.5-11.5l8.1-1.8c.4 3.1 1 5.2 1.9 6.4 1.6 2.3 4 3.4 7.2 3.4 2.5 0 4.5-.8 6.2-2.5 1.6-1.7 2.5-3.8 2.5-6.3 0-1-.1-2-.4-2.8-.3-.9-.7-1.6-1.3-2.4-.6-.7-1.4-1.4-2.3-2-1-.6-2.1-1.2-3.4-1.8l-5.1-2.1c-7.2-3.1-10.8-7.5-10.8-13.4 0-4 1.5-7.3 4.5-9.9 3-2.7 6.8-4 11.3-4 5.9.1 10.7 3.1 14.1 9zm64.6 45.9h-10l-4.1-4.2c-4.4 2.8-9.3 4.2-14.7 4.2-7 0-13.2-2.4-18.6-7.1-5.9-5.2-8.9-11.9-8.9-20 0-8 2.8-14.6 8.4-19.9 5.4-5.1 11.8-7.7 19.2-7.7 6.7 0 12.7 2.3 18 6.8 6.4 5.4 9.6 12.5 9.6 21.2 0 6.8-2.5 12.9-7.6 18.2l8.7 8.5zm-21.9-21.9l7.7 7.6c3.4-3.5 5.1-7.8 5.1-13 0-5.7-1.9-10.4-5.6-14.3s-8.4-5.7-14-5.7c-5.7 0-10.3 1.9-13.9 5.7-3.7 3.8-5.5 8.6-5.5 14.5 0 5.7 1.9 10.4 5.7 14 3.9 3.7 8.4 5.6 13.5 5.6 3.4 0 6.6-.8 9.3-2.4l-12.4-12h10.1zm38.8-31.9v31.8c0 4.5.7 7.9 2.2 9.9 2.2 3 5.3 4.5 9.3 4.5 4 0 7.2-1.5 9.4-4.5 1.5-2 2.2-5.3 2.2-9.9v-31.8h8v34c0 5.6-1.7 10.1-5.2 13.7-3.9 4-8.7 6-14.4 6s-10.4-2-14.3-6c-3.5-3.6-5.2-8.2-5.2-13.7v-34h8zm72.5 40h-22.6l-5.9 12.8h-8.6l26.1-56.1 25.2 56.1h-8.7l-5.5-12.8zm-3.3-7.5l-7.8-17.9-8.2 17.9h16zm42-2.2l16.3 22.5H407l-15.1-21.6h-1.4v21.6h-8v-52.8h9.3c7 0 12 1.3 15.1 3.9 3.4 2.9 5.1 6.8 5.1 11.6 0 3.7-1.1 7-3.2 9.6-2.1 2.8-4.9 4.5-8.4 5.2zm-9.9-6h2.5c7.5 0 11.3-2.9 11.3-8.6 0-5.4-3.7-8.1-11-8.1h-2.8v16.7zm63.3-16.8h-21.2v12.7h20.5v7.5h-20.5v17.6h21.2v7.5h-29.1v-52.8h29.1v7.5zm10.4 45.3v-52.8h11.1c5.3 0 9.5.5 12.6 1.6 3.3 1 6.3 2.8 9 5.2 5.4 5 8.2 11.5 8.2 19.6 0 8.1-2.8 14.7-8.5 19.7-2.8 2.5-5.8 4.2-9 5.2-2.9 1-7.1 1.5-12.4 1.5h-11zm8-7.5h3.6c3.6 0 6.6-.4 8.9-1.1 2.4-.8 4.5-2.1 6.4-3.8 3.9-3.6 5.9-8.2 5.9-14 0-5.8-1.9-10.5-5.8-14.1-3.5-3.2-8.6-4.8-15.4-4.8h-3.6v37.8z" class="st0"/><path d="M283.1 240.5L177.5 346.1h221.2V235.5l3.7-110.6z" class="st3"/><path d="M292.9 240.5l105.6 105.6H177.3V235.5l-3.7-110.6z" class="st0"/></g></svg>