<?xml version="1.0" encoding="utf-8"?>
<!-- Generator: Adobe Illustrator 22.0.1, SVG Export Plug-In . SVG Version: 6.00 Build 0)  -->
<svg version="1.1" id="Layer_1" xmlns="http://www.w3.org/2000/svg" xmlns:xlink="http://www.w3.org/1999/xlink" x="0px" y="0px"
	 viewBox="0 0 576 576" style="enable-background:new 0 0 576 576;" xml:space="preserve">
<style type="text/css">
	.st0{fill:#DAAF28;}
	.st1{fill:#6D2F2F;}
	.st2{fill:#EE2632;}
	.st3{fill:#F9D607;}
</style>
<g>
	<path class="st0" d="M111,486.9H82.1v-82h28.7v11.3H96.4V439h12.1v11.5H96.4v25.1H111V486.9z"/>
	<path class="st0" d="M170.8,487.2h-13.7v-38.5l-6.1,38.5h-8.8l-6.4-38.5v38.5h-11.8v-82.3h16.5l6.5,48.4l7.7-48.4h16V487.2z"/>
	<path class="st0" d="M217,469.4c0,13.1-6.8,18.8-17.2,18.8c-11,0-15.4-6.7-15.4-18.6c0-4.5,0.4-8.5,0.9-11.5l10.7,1.3
		c-0.4,3.1-0.7,6.3-0.7,9.1c0,6.9,1.2,8.8,3.7,8.8c2.4,0,3.6-1.8,3.6-6.8v-2.2c0-6.1-1.7-11.6-8.7-20.1c-6.9-8.3-9.7-15.1-9.7-24.5
		v-1.3c0-10.7,4.2-18.8,16.3-18.8c11.6,0,15.3,7.4,15.3,18.6c0,4.1-0.3,6.9-0.7,10.1l-10.8-1.3c0.3-2.8,0.5-3.4,0.5-7.7
		c0-7.2-1.1-8.9-3.3-8.9c-2.4,0-3.1,1.6-3.1,6.4v1.7c0,4.7,1.8,9.5,6.8,15.9c7.1,9.1,11.8,18.9,11.8,29.4V469.4z"/>
	<path class="st0" d="M269.2,488.5c-6-0.1-8.4-1.8-10.6-4.9c-3,2.7-6.9,4.6-11.4,4.6c-9.7,0-17.9-5-17.9-18.2v-48.4
		c0-13.4,8.3-18.2,17.9-18.2c9.6,0,17.5,4.7,17.5,18.2v48.4c0,1.8-0.5,3.7-1.1,4.5c1.2,1.2,2.6,1.2,4.1,1.3c0.2,0,0.5,0.1,1.5-0.1
		V488.5z M250.5,418.9c0-3.2-1.8-4.5-3.5-4.5c-2.1,0-3.6,1.3-3.6,4.5v53.8c0,3.1,1.4,4.5,3.7,4.5c2.1,0,3.4-1.3,3.4-4.4V418.9z"/>
	<path class="st0" d="M316.1,471c0,11.4-7.1,17.2-17.5,17.2c-10.8,0-17.4-5.8-17.4-17.1v-66.2h14.1v67.6c0,3.1,1.6,4.7,4.1,4.7
		c2.2,0,3.2-1.6,3.2-4.8v-67.5h13.6V471z"/>
	<path class="st0" d="M364.8,486.9h-14.3l-1.1-11.4H341l-1.1,11.4H328l10.6-82h15.3L364.8,486.9z M348,464.1l-2.6-32.7l-3.3,32.7
		H348z"/>
	<path class="st0" d="M398.6,487.2c-0.6-1.5-1-3.2-1.1-4.9c-0.2-7.2-0.2-9.8-0.3-15.1c-0.2-12.3-1.9-13.6-3.6-13.6h-2v33.5h-14.2
		v-82.3H395c11.4,0,17.5,6.5,17.5,21.6c0,11.4-1,17.5-8.1,21c6.2,4,6.8,13.6,6.8,18.8v6.2c0,7.7,0.4,10.7,1.4,14.6H398.6z
		 M393.4,416.2h-1.9v26h1.8c3.2,0,5.3-2.6,5.3-13.6C398.7,417.9,396.5,416.2,393.4,416.2z"/>
	<path class="st0" d="M454.6,486.9h-28.8v-82h28.7v11.3H440V439h12.1v11.5H440v25.1h14.6V486.9z"/>
	<path class="st0" d="M503.3,469.7c0,13-6.6,17.2-17.8,17.2h-17.7v-82h17.4c11.9,0,18.2,4.5,18.2,18.6V469.7z M489.1,422
		c0-4.7-1.4-5.8-4.4-5.8H482v59.4h2.6c3.4,0,4.6-1.4,4.6-5.2V422z"/>
</g>
<polygon class="st1" points="365.9,228 443.9,273 365.9,318 288,363 288,272.3 288,183 "/>
<polygon class="st2" points="210.1,228 132.1,273 189.3,305.9 288,363 288,272.3 288,183 "/>
<polygon class="st3" points="219,249.5 288,363 189.3,305.9 132.1,273 132.1,182.3 132.1,93 "/>
<polygon class="st0" points="357,249.5 288,363 386.7,305.9 443.9,273 443.9,182.3 443.9,93 "/>
</svg>
