<?xml version="1.0" encoding="utf-8"?>
<!-- Generator: Adobe Illustrator 21.1.0, SVG Export Plug-In . SVG Version: 6.00 Build 0)  -->
<svg version="1.1" xmlns="http://www.w3.org/2000/svg" xmlns:xlink="http://www.w3.org/1999/xlink" x="0px" y="0px"
	 viewBox="0 0 444 468" style="enable-background:new 0 0 444 468;" xml:space="preserve">
<style type="text/css">
	.st0{fill:#FFF200;}
</style>
<g id="Layer_4">
</g>
<g id="Layer_2">
	<g>
		<path class="st0" d="M205.8,200.1c0-16.9,0-33.8,0-50.6c0-1.7,0.1-3.4,0.5-5c1.1-4.2-1.4-5.1-4.6-5.2c-9.8-0.4-19.7-0.5-29.5-1.1
			c-3.3-0.2-6.7-1-9.8-2c-6.5-2.1-13-1.2-19.6-0.8c-7.5,0.5-15,1-22.5,1.2c-4.8,0.1-9.6-5.9-10.1-12.2c-0.4-5,2.6-9.3,7.6-10.1
			c4-0.6,8.1-0.4,12.2-0.4c6.4,0,12.9-0.2,19.3,0.1c7.8,0.3,15.5,1.2,23.3,1.6c9.8,0.6,19.7,1.2,29.5,1.3c4.7,0.1,6.3-2.2,6.2-6.9
			c-0.3-8-0.8-16-0.9-24.1c0-4,1-8,1-12c-0.1-8.6-0.4-17.1-0.9-25.7c-0.2-3.2-1.4-6.4-1.4-9.6c-0.1-6.7,0.3-13.4,0.6-20.1
			c0.3-7.7,7.4-8.7,12.6-7.1c12.9,4.1,13.4,10.4,14,21.8c0.5,8.6,0.1,17.3,0.3,26c0.1,4.4,1.3,8.7,1.4,13.1
			c0.4,13.8,0.7,27.7,0.9,41.5c0.1,3.4,1.8,4.6,4.9,4.6c19.7-0.3,39.5-0.4,59.2-0.9c6.3-0.2,12.7-0.3,18.6-3.5
			c3.6-2,13,1.4,15.9,5.3c1.8,2.4,3.5,4.9,4.4,7.7c3.5,10.4-9.6,19.3-18.9,16.3c-8.5-2.8-16.9-2-25.4-2.1c-10-0.2-20-0.2-30-0.3
			c-8.3-0.1-16.6-0.1-24.9-0.2c-2.6,0-3.6,1.4-3.8,3.9c-0.7,6.9-1.7,13.9-2.1,20.8c-0.3,4.5,0.4,9.1,0.6,13.6
			c0.3,8.5,0.4,17,0.8,25.5c0.2,4.6,0.4,9.2,1.3,13.7c1.1,5.4,5.7,7.2,10.3,9.1c1.8,0.7,3.4,2,4.8,3.3c3.9,3.6,7.7,7.3,11.4,11.1
			c1.1,1.1,2.1,2.4,3,3.8c4.1,6,7.3,12.7,12.3,17.9c7,7.3,12,16.5,21.6,21.5c3.5,1.8,5.6,6.1,8.7,8.7c6.8,5.7,13.9,11.1,21.1,16.3
			c0.9,0.7,3.7,0.2,4.6-0.7c3.5-3.6,7-7.3,9.7-11.5c6.8-10.4,12.7-21.4,19.7-31.7c7-10.2,14.7-20,22.4-29.7c2.2-2.8,5.4-4.8,8.3-7
			c6-4.6,10.1-10.4,13.4-17.2c1.1-2.3,5.1-3.7,8-4.4c3.1-0.8,6.5-0.3,9.7-0.5c5.7-0.2,13.4,7.2,11.8,13.6c-1.1,4.3-2.4,8-5,11.8
			c-2.1,3.2-2.6,7.7-3.2,11.7c-0.8,5.9-1.3,11.8-1.6,17.7c-0.2,4.1-0.1,8.4,0.5,12.4c2.3,14.5,2.3,29.2,2.5,43.8
			c0.1,9.3,0,18.6,0,27.8c0,3.1,0.4,6.2,0.3,9.3c-0.1,4.1-0.6,8.3-0.5,12.4c0.1,10.3,0.3,20.6,0.7,30.9c0.1,3.2,1.1,6.4,1.4,9.6
			c0.5,4.6,0.7,9.2,1,13.9c0.5,6.1,1,12.3,1.6,18.4c0.8,7.5-7,14.9-14.6,13.8c-6.3-0.9-12.6-2.4-18.9-2.5c-9.7-0.1-19.3,0.7-29,1.1
			c-1.7,0.1-3.3,0.1-5,0c-14-0.2-27.9-0.3-41.9-0.5c-5.3-0.1-10.6-0.4-15.9-0.5c-15.7,0-31.4-0.1-47.1,0.1c-7.7,0.1-15.3,0.3-23,0.8
			c-1.6,0.1-3.6,1.1-4.6,2.4c-2.5,3.2-5.7,4.5-9.5,4.4c-6.9-0.2-14.1,0-19.3-6c-0.7-0.8-2-1.3-3.1-1.4c-10.3-0.8-20.6-1.7-31-2
			c-14.1-0.4-28.3-0.4-42.5-0.5c-14.9-0.2-29.9-0.5-44.8-0.7c-7.4-0.1-14.8-1-22.3,0.8c-4.1,1-8.8-1-13.3-1.6c-5-0.6-8.4,0.7-11,5.7
			c-3.2,6.3-12.6,10.3-20.2,6.5c-8.9-4.5-10.2-5.8-9.4-15.9c0.4-5.1-1.4-10.4,1.8-15.2c0.6-0.9-0.2-2.7-0.4-4.2
			c-0.6-5.6-1.6-11.2-1.7-16.9c-0.1-10.1,0.5-20.2,0.8-30.3c0.3-7.4,0.3-14.7,1-22c0.8-7.4,2.6-14.7,3.4-22.1
			c0.7-6.2,0.8-12.4,0.8-18.7c0-6.2-0.6-12.4-0.6-18.6c-0.1-12.5,0.5-24.9-0.1-37.3c-0.2-4.7-0.7-9.6-2.9-14.5
			c-2.5-5.4-2.2-12.1-3-18.2c-1.1-7.8,1.1-10.6,8.7-12.8c2.5-0.7,4.8-2.7,6.7-4.5c3.5-3.4,7-4.2,11.6-2c4.3,2.1,9.5,2.6,13.2,5.3
			c5.3,3.8,9.8,8.8,14.2,13.7c6.3,7,12.3,14.3,18.2,21.7c3.9,4.9,7.3,10.3,11.3,15.2c2.9,3.4,6.5,6.2,9.7,9.3
			c1.8,1.7,3.2,3.8,5.1,5.3c4.1,3.2,8.4,6.2,12.8,9.1c2.1,1.4,4.5,2.4,6.9,3.1c0.9,0.3,2.4-0.5,3.3-1.2c7.1-5.4,12.3-12.7,18.6-19
			c6.2-6.2,13.3-11.6,20-17.3c1.1-0.9,2.3-1.7,3.3-2.7c9.6-9.3,19.1-18.6,28.7-27.9c0.2-0.2,0.3-0.4,0.6-0.5c6.1-2.3,5.1-7.5,5-12.3
			c-0.1-3-0.3-6-0.5-9C205.2,200.1,205.5,200.1,205.8,200.1z M212.8,270.8c-0.4,0-0.8,0-1.3-0.1c0-5.8,0.1-11.7-0.1-17.5
			c-0.1-1.7-1.1-4.9-1.7-4.9c-2.1,0-4.9,0.4-6.4,1.8c-6.2,5.8-12.1,11.9-18.1,18c-8.4,8.5-16.9,17.1-25.2,25.8
			c-1.6,1.7-2.4,4.2-3.9,6.1c-3.8,4.7-7.8,9.3-11.6,14c-0.9,1.1-1.3,2.5-2,3.7c-0.9,1.4-1.7,2.9-2.8,4c-2.8,2.9-6.6,3.8-10.5,4.6
			c-7.6,1.4-12.7-0.6-16.9-7.1c-0.8-1.3-2-2.5-3.2-3.2c-4.2-2.2-9.7-2.6-11-8.4c0-0.2-0.4-0.3-0.6-0.5c-1.8-2.2-3.4-4.6-5.3-6.7
			c-3.8-4.2-7.1-9.6-11.8-12c-7.4-3.8-9.4-11.9-15.7-16.1c-0.3-0.2-0.3-0.7-0.5-1.1c-0.9-1.9-1.5-4.1-2.7-5.8
			c-3.1-4.5-6.2-9-9.6-13.2c-2.2-2.7-4.7-5.1-7.3-7.4c-0.5-0.4-3,0.4-3.1,0.8c-0.5,3.4-0.8,6.9-0.9,10.3c-0.2,7.9-0.3,15.8-0.2,23.7
			c0.2,12.7,0.6,25.4,0.8,38.1c0,2.3-0.3,4.6-0.6,6.9c-0.4,3.4-1,6.8-1.5,10.2c-0.2,1.3,0.1,2.6,0,3.8c-0.8,11.4-1.7,22.9-2.6,34.3
			c-0.1,0.9-0.3,1.8-0.4,2.7c-0.3,3.2-0.8,6.4-0.7,9.5c0,3.3,1.7,6.9,0.8,9.9c-2.3,7.9,0.5,15,1.6,22.5c0.6,4,3,5.3,6.7,5.4
			c5.7,0.1,11.3,0.4,17,0.9c4.1,0.3,8.2,1.3,12.3,1.4c7.9,0.3,15.8,0,23.7,0.2c11.1,0.3,22.2,1,33.3,1.4c2.9,0.1,5.9-0.9,8.9-0.8
			c9.5,0.1,18.9,0.6,28.4,0.8c7.9,0.2,15.8,0.2,23.7,0.3c2.1,0,4.1,0.7,6.2,0.7c4.4,0,6.4-2.3,6.2-6.6c-0.1-1.7,0-3.3,0.1-5
			c0.9-10.5,2.1-20.9,2.7-31.4c0.7-11.1,0.8-22.2,1.2-33.3c0.5-14.6,1.2-29.3,1.7-43.9c0.2-3.9,0.2-7.7,0.5-11.6
			C211.1,287.5,212,279.2,212.8,270.8z M401.7,260.8c-0.4-0.2-0.9-0.3-1.3-0.5c-1.9,2.6-3.9,5.3-5.8,7.9
			c-3.9,5.6-7.5,11.3-11.6,16.7c-3.4,4.5-7.4,8.6-10.7,13.2c-5.2,7.2-9.9,14.7-14.9,22c-3.5,5.1-7.2,10.1-11,14.9
			c-3.9,4.9-8.2,9.8-15.4,8.5c-4-0.7-8.1-2.1-11.8-3.8c-3.2-1.5-6.9-3.3-8.6-6.1c-3.5-6-10.1-8.6-13.8-14.8c-4-6.6-11.7-10.9-17-17
			c-6-6.9-12.1-13.7-19-19.8c-3.1-2.7-4.6-7.4-7.1-10.9c-3.2-4.5-6.7-8.9-10.2-13.1c-0.8-0.9-2.5-1-3.7-1.5
			c-0.3,1.4-0.9,2.9-0.9,4.3c0.1,3.2,0.7,6.5,0.6,9.7c-0.5,13.3-1.2,26.6-1.9,40c-0.1,1.9-0.2,3.9-0.3,5.8
			c-0.5,5.9-1.2,11.8-1.5,17.7c-0.5,7.9-0.7,15.8-1,23.6c-0.3,8.4-0.7,16.8-0.9,25.2c-0.1,4.8,0.5,9.7-0.1,14.4
			c-1.1,8.9-1.8,17.7-0.4,26.6c0.7,4.6,2,5.7,6.6,5.6c13-0.5,25.9-1.2,38.9-1.5c13.3-0.3,26.6,0,39.9-0.1c13.3-0.1,26.7-0.4,40-0.7
			c10.8-0.2,21.5-0.6,32.3-0.7c10.5-0.1,12-1,14.5-10.9c0.6-2.6,0.8-5.4,0.6-8.1c-0.4-5.8-1.5-11.6-1.9-17.5c-0.3-4.5,0-9.1,0-13.6
			c0-2.2-0.2-4.3-0.1-6.5c0.1-2.4,0.7-4.9,0.6-7.3c-0.9-16.5-0.5-32.9,1.2-49.4c0.6-6,0.1-12.2-0.1-18.3c0-1.1-0.7-2.2-1.1-3.3
			c-0.4-1.5-1.1-2.9-1.2-4.4c-0.4-7.9-0.7-15.9-1.1-23.9C402.4,262.5,402,261.6,401.7,260.8z"/>
	</g>
</g>
<g id="Layer_3">
</g>
</svg>
