<?xml version="1.0" standalone="no"?>
<!DOCTYPE svg PUBLIC "-//W3C//DTD SVG 20010904//EN"
 "http://www.w3.org/TR/2001/REC-SVG-20010904/DTD/svg10.dtd">
<svg version="1.0" xmlns="http://www.w3.org/2000/svg"
 width="700.000000pt" height="700.000000pt" viewBox="0 0 700.000000 700.000000"
 preserveAspectRatio="xMidYMid meet">
<metadata>
Created by potrace 1.11, written by Peter Selinger 2001-2013
</metadata>
<g transform="translate(0.000000,700.000000) scale(0.100000,-0.100000)"
fill="#000000" stroke="none">
<path d="M1394 5552 c2 -4 7 -95 11 -202 3 -107 8 -244 10 -305 4 -103 10
-280 20 -595 7 -234 15 -450 22 -610 3 -85 6 -647 7 -1249 l2 -1094 2014 1
c1108 0 2024 1 2035 1 20 1 20 8 21 1069 0 587 4 1157 8 1267 4 110 9 259 11
330 3 72 7 193 10 270 9 293 16 504 20 600 16 418 17 528 2 514 -48 -47 -546
-530 -614 -595 -44 -44 -183 -178 -308 -299 -125 -121 -266 -258 -313 -304
-48 -46 -204 -197 -347 -335 -453 -440 -497 -481 -505 -481 -5 0 -111 99 -236
220 -125 121 -257 249 -293 284 -36 35 -181 175 -321 311 -140 136 -289 280
-330 320 -41 40 -185 179 -320 310 -135 130 -279 270 -320 309 -41 40 -120
117 -176 172 -88 86 -127 119 -110 91z"/>
</g>
</svg>
