<?xml version="1.0" standalone="no"?>
<!DOCTYPE svg PUBLIC "-//W3C//DTD SVG 20010904//EN"
 "http://www.w3.org/TR/2001/REC-SVG-20010904/DTD/svg10.dtd">
<svg version="1.0" xmlns="http://www.w3.org/2000/svg"
 width="700.000000pt" height="700.000000pt" viewBox="0 0 700.000000 700.000000"
 preserveAspectRatio="xMidYMid meet">
<metadata>
Created by potrace 1.11, written by Peter Selinger 2001-2013
</metadata>
<g transform="translate(0.000000,700.000000) scale(0.100000,-0.100000)"
fill="#000000" stroke="none">
<path d="M5305 5544 c-121 -31 -120 -30 -122 -75 -2 -46 -9 -45 87 -10 110 39
200 6 214 -79 9 -57 -30 -113 -198 -282 -95 -96 -106 -111 -106 -143 0 -19 3
-35 8 -36 10 -1 353 -1 372 0 12 1 15 10 12 36 l-4 35 -139 0 c-76 0 -139 2
-139 5 0 2 30 35 68 72 184 187 218 239 209 324 -7 60 -36 103 -90 130 -40 21
-132 33 -172 23z"/>
<path d="M2114 5325 c4 -88 8 -227 11 -310 9 -283 15 -440 21 -600 4 -88 7
-488 8 -890 l1 -730 1343 -3 c738 -1 1343 1 1343 5 1 5 3 330 4 723 1 393 5
796 9 895 8 204 14 380 21 605 3 85 7 225 11 310 l5 155 -102 -100 c-56 -55
-121 -118 -144 -140 -23 -22 -165 -160 -316 -306 -151 -146 -310 -301 -354
-343 -44 -43 -167 -162 -273 -264 -106 -103 -197 -187 -202 -187 -8 0 -107 94
-500 475 -48 47 -183 177 -299 290 -267 257 -415 400 -514 498 l-78 77 5 -160z"/>
<path d="M1411 2012 c-48 -248 -47 -241 -67 -347 -8 -44 -17 -87 -20 -96 -4
-13 4 -18 37 -21 52 -5 65 7 73 69 4 26 13 80 21 118 15 75 27 152 28 173 1
29 16 7 52 -75 21 -49 56 -126 77 -173 21 -47 44 -98 51 -114 13 -28 15 -23
107 180 l94 208 12 -73 c7 -39 20 -126 30 -191 16 -109 20 -120 38 -121 12 0
34 -2 50 -3 l28 -2 -6 51 c-3 27 -8 60 -10 71 -2 12 -7 37 -10 55 -3 19 -8 45
-11 59 -3 14 -8 41 -11 60 -3 19 -7 46 -10 60 -6 32 -23 125 -30 170 -4 19 -8
42 -9 50 -2 8 -7 37 -11 63 -4 27 -10 45 -14 40 -4 -4 -42 -87 -86 -183 -43
-96 -92 -203 -109 -237 l-30 -63 -104 238 c-57 130 -107 240 -110 244 -4 4
-26 -90 -50 -210z"/>
<path d="M4250 2211 c0 -5 -27 -66 -60 -136 -33 -70 -60 -128 -60 -130 0 -2
-24 -54 -54 -116 -99 -210 -127 -272 -122 -277 3 -2 24 -5 48 -5 l43 -1 38 77
38 77 42 1 c120 3 231 -1 237 -8 4 -4 13 -24 20 -43 35 -96 36 -98 91 -102 28
-1 52 -1 54 2 1 3 -9 30 -24 60 -14 30 -82 180 -150 333 -109 242 -141 304
-141 268z m58 -308 c23 -54 42 -101 42 -104 0 -3 -43 -5 -94 -5 -52 0 -94 2
-92 5 13 23 75 162 80 179 4 12 11 22 14 22 4 0 27 -44 50 -97z"/>
<path d="M2284 2193 c-35 -7 -102 -71 -114 -108 -16 -49 -4 -110 31 -149 16
-19 70 -53 123 -79 73 -37 97 -54 109 -79 15 -31 15 -37 -5 -91 -19 -49 -87
-71 -142 -46 -25 12 -56 63 -56 92 0 8 -6 14 -12 13 -95 -19 -90 -16 -82 -50
9 -44 28 -77 61 -108 79 -75 224 -64 296 21 57 68 61 175 9 240 -27 33 -101
80 -152 96 -37 11 -81 45 -89 69 -11 28 7 64 40 82 48 25 96 14 130 -29 l16
-20 37 22 c37 23 37 23 20 50 -42 64 -129 94 -220 74z"/>
<path d="M2870 2186 c-60 -17 -84 -30 -132 -74 -78 -71 -111 -145 -110 -253 0
-90 37 -174 101 -231 72 -63 105 -77 220 -92 34 -4 109 11 154 30 37 17 38 17
63 -7 20 -19 37 -24 80 -24 30 0 54 2 54 6 0 3 -21 26 -47 50 l-48 45 37 54
c68 101 69 245 2 351 -30 48 -99 107 -153 130 -56 25 -163 32 -221 15z m197
-99 c36 -19 100 -89 114 -125 16 -39 19 -130 6 -166 -6 -17 -20 -43 -31 -59
l-20 -27 -46 45 c-43 43 -51 46 -99 47 -29 0 -54 -2 -57 -5 -3 -2 27 -35 66
-73 l71 -69 -32 -13 c-105 -43 -250 19 -295 128 -20 47 -19 147 2 198 19 49
93 118 138 131 45 13 148 6 183 -12z"/>
<path d="M863 1870 l0 -320 46 -1 c48 -1 237 -1 282 0 24 1 26 4 25 44 l-1 42
-124 2 c-68 2 -125 4 -127 5 -3 3 -6 130 -5 181 l1 27 125 0 125 0 0 45 c0 36
-4 45 -17 46 -10 1 -66 1 -125 1 l-106 1 -4 58 c-5 99 -10 96 125 96 64 0 121
3 125 7 4 4 8 25 8 47 l2 39 -178 0 -177 0 0 -320z"/>
<path d="M3419 2168 c0 -13 -1 -118 -1 -234 0 -233 7 -264 68 -328 117 -122
356 -66 394 93 9 38 15 295 11 459 l-1 33 -47 -3 -48 -3 -1 -215 c0 -118 -4
-229 -8 -246 -4 -17 -21 -44 -37 -60 -27 -26 -37 -29 -94 -29 -57 0 -67 3 -94
29 -16 16 -33 43 -37 60 -4 17 -8 128 -9 246 l-1 215 -47 3 c-43 3 -47 1 -48
-20z"/>
<path d="M4650 1871 c0 -207 4 -321 10 -322 6 0 27 -1 48 -2 l37 0 1 119 c2
174 1 171 54 91 118 -177 140 -202 178 -207 20 -3 47 -4 59 -2 22 4 22 5 -9
51 -17 25 -34 48 -38 51 -3 3 -32 42 -64 87 l-57 83 28 11 c123 46 147 231 41
312 -42 32 -92 44 -202 46 l-86 2 0 -320z m213 207 c43 -23 57 -65 41 -125 -7
-26 -56 -51 -115 -58 l-44 -5 1 92 c1 51 2 98 3 105 1 15 82 8 114 -9z"/>
<path d="M5160 1870 c0 -298 1 -320 18 -321 21 0 301 0 323 0 12 1 16 11 15
44 l-2 42 -119 2 c-66 2 -124 5 -130 7 -10 3 -11 193 -1 203 2 3 58 6 123 6
l118 2 1 35 c0 19 -1 40 -3 45 -2 6 -46 9 -111 8 -59 -1 -114 0 -122 3 -14 3
-17 41 -11 140 1 8 36 11 114 10 150 -2 148 -3 138 87 -1 4 -80 7 -176 7
l-175 0 0 -320z"/>
<path d="M5640 1871 l0 -320 38 -3 c79 -7 229 10 275 30 122 54 188 168 181
311 -4 82 -30 145 -83 200 -67 72 -147 97 -309 100 l-102 2 0 -320z m268 204
c86 -36 127 -105 126 -210 0 -76 -14 -112 -60 -159 -44 -43 -80 -57 -160 -63
l-74 -6 0 232 0 231 65 -5 c36 -3 82 -12 103 -20z"/>
</g>
</svg>
