<?xml version="1.0" encoding="utf-8"?>
<!-- Generator: Adobe Illustrator 22.1.0, SVG Export Plug-In . SVG Version: 6.00 Build 0)  -->
<svg version="1.1" id="Behance" xmlns="http://www.w3.org/2000/svg" xmlns:xlink="http://www.w3.org/1999/xlink" x="0px" y="0px"
	 viewBox="0 0 128 128" style="enable-background:new 0 0 128 128;" xml:space="preserve">
<g>
	<path d="M0,64C0,28.6,28.6,0,64,0c35.4,0,64.2,28.6,64.2,64c0,35.4-28.8,64-64.2,64C28.6,128,0,99.4,0,64z M28.8,49.2l2.9,3.8
		c0,0,5.8-4.7,7.8-2.4c2,2.4,9.5,30.3,12,35.6c2.2,4.6,8.2,10.6,14.8,6.2c6.6-4.2,28.6-23,32.5-45.2c4-22.1-26.4-17.5-29.5,1.8
		c8-4.7,12.2,2,8.2,9.7c-4.2,7.7-7.8,12.6-9.8,12.6c-2,0-3.5-5.1-5.8-14C59.6,48,59.6,31.2,50,33.2C40.8,35,28.8,49.2,28.8,49.2z"/>
</g>
</svg>
